<mxfile host="app.diagrams.net" agent="Mozilla/5.0 (Windows NT 10.0; Win64; x64) AppleWebKit/537.36 (KHTML, like Gecko) Chrome/130.0.0.0 Safari/537.36 Edg/130.0.0.0" version="24.8.2">
  <diagram name="Page-1" id="6Pzro2k6_kmgNlEnG2k_">
    <mxGraphModel grid="1" page="1" gridSize="10" guides="1" tooltips="1" connect="1" arrows="1" fold="1" pageScale="1" pageWidth="2339" pageHeight="3300" math="0" shadow="0">
      <root>
        <mxCell id="0" />
        <mxCell id="1" parent="0" />
        <mxCell id="mtZSVbBIH9wtx_KuYUVb-2" style="edgeStyle=orthogonalEdgeStyle;rounded=0;orthogonalLoop=1;jettySize=auto;html=1;" edge="1" parent="1" source="mtZSVbBIH9wtx_KuYUVb-1">
          <mxGeometry relative="1" as="geometry">
            <mxPoint x="430" y="180" as="targetPoint" />
          </mxGeometry>
        </mxCell>
        <mxCell id="mtZSVbBIH9wtx_KuYUVb-1" value="&lt;font size=&quot;3&quot;&gt;START&lt;/font&gt;" style="ellipse;whiteSpace=wrap;html=1;" vertex="1" parent="1">
          <mxGeometry x="370" y="10" width="120" height="80" as="geometry" />
        </mxCell>
        <mxCell id="mtZSVbBIH9wtx_KuYUVb-4" style="edgeStyle=orthogonalEdgeStyle;rounded=0;orthogonalLoop=1;jettySize=auto;html=1;" edge="1" parent="1" source="mtZSVbBIH9wtx_KuYUVb-3">
          <mxGeometry relative="1" as="geometry">
            <mxPoint x="427.5" y="320" as="targetPoint" />
          </mxGeometry>
        </mxCell>
        <mxCell id="mtZSVbBIH9wtx_KuYUVb-3" value="enter year" style="shape=parallelogram;perimeter=parallelogramPerimeter;whiteSpace=wrap;html=1;fixedSize=1;" vertex="1" parent="1">
          <mxGeometry x="330" y="180" width="195" height="70" as="geometry" />
        </mxCell>
        <mxCell id="mtZSVbBIH9wtx_KuYUVb-6" style="edgeStyle=orthogonalEdgeStyle;rounded=0;orthogonalLoop=1;jettySize=auto;html=1;" edge="1" parent="1" source="mtZSVbBIH9wtx_KuYUVb-5">
          <mxGeometry relative="1" as="geometry">
            <mxPoint x="130" y="550" as="targetPoint" />
            <Array as="points">
              <mxPoint x="204" y="385" />
              <mxPoint x="204" y="386" />
            </Array>
          </mxGeometry>
        </mxCell>
        <mxCell id="mtZSVbBIH9wtx_KuYUVb-16" value="Y" style="edgeLabel;html=1;align=center;verticalAlign=middle;resizable=0;points=[];" connectable="0" vertex="1" parent="mtZSVbBIH9wtx_KuYUVb-6">
          <mxGeometry x="-0.6256" y="-1" relative="1" as="geometry">
            <mxPoint as="offset" />
          </mxGeometry>
        </mxCell>
        <mxCell id="mtZSVbBIH9wtx_KuYUVb-8" style="edgeStyle=orthogonalEdgeStyle;rounded=0;orthogonalLoop=1;jettySize=auto;html=1;" edge="1" parent="1" source="mtZSVbBIH9wtx_KuYUVb-5">
          <mxGeometry relative="1" as="geometry">
            <mxPoint x="790" y="540" as="targetPoint" />
            <Array as="points">
              <mxPoint x="684" y="385" />
              <mxPoint x="684" y="386" />
            </Array>
          </mxGeometry>
        </mxCell>
        <mxCell id="mtZSVbBIH9wtx_KuYUVb-17" value="N" style="edgeLabel;html=1;align=center;verticalAlign=middle;resizable=0;points=[];" connectable="0" vertex="1" parent="mtZSVbBIH9wtx_KuYUVb-8">
          <mxGeometry x="-0.3986" y="1" relative="1" as="geometry">
            <mxPoint as="offset" />
          </mxGeometry>
        </mxCell>
        <mxCell id="mtZSVbBIH9wtx_KuYUVb-5" value="if year%100!=0 and year%4==0&lt;div&gt;or year%400==0&lt;/div&gt;" style="rhombus;whiteSpace=wrap;html=1;" vertex="1" parent="1">
          <mxGeometry x="277.5" y="320" width="300" height="130" as="geometry" />
        </mxCell>
        <mxCell id="mtZSVbBIH9wtx_KuYUVb-11" style="edgeStyle=orthogonalEdgeStyle;rounded=0;orthogonalLoop=1;jettySize=auto;html=1;" edge="1" parent="1" source="mtZSVbBIH9wtx_KuYUVb-7">
          <mxGeometry relative="1" as="geometry">
            <mxPoint x="410" y="580" as="targetPoint" />
          </mxGeometry>
        </mxCell>
        <mxCell id="mtZSVbBIH9wtx_KuYUVb-7" value="print(year is a leap year)" style="shape=parallelogram;perimeter=parallelogramPerimeter;whiteSpace=wrap;html=1;fixedSize=1;" vertex="1" parent="1">
          <mxGeometry x="20" y="550" width="240" height="60" as="geometry" />
        </mxCell>
        <mxCell id="mtZSVbBIH9wtx_KuYUVb-9" value="print(year is not a leap year)" style="shape=parallelogram;perimeter=parallelogramPerimeter;whiteSpace=wrap;html=1;fixedSize=1;" vertex="1" parent="1">
          <mxGeometry x="650" y="540" width="260" height="60" as="geometry" />
        </mxCell>
        <mxCell id="mtZSVbBIH9wtx_KuYUVb-15" style="edgeStyle=orthogonalEdgeStyle;rounded=0;orthogonalLoop=1;jettySize=auto;html=1;entryX=0.5;entryY=0;entryDx=0;entryDy=0;" edge="1" parent="1" source="mtZSVbBIH9wtx_KuYUVb-10" target="mtZSVbBIH9wtx_KuYUVb-14">
          <mxGeometry relative="1" as="geometry" />
        </mxCell>
        <mxCell id="mtZSVbBIH9wtx_KuYUVb-10" value="" style="ellipse;whiteSpace=wrap;html=1;aspect=fixed;" vertex="1" parent="1">
          <mxGeometry x="420" y="540" width="80" height="80" as="geometry" />
        </mxCell>
        <mxCell id="mtZSVbBIH9wtx_KuYUVb-13" style="edgeStyle=orthogonalEdgeStyle;rounded=0;orthogonalLoop=1;jettySize=auto;html=1;entryX=1;entryY=0.375;entryDx=0;entryDy=0;entryPerimeter=0;" edge="1" parent="1" source="mtZSVbBIH9wtx_KuYUVb-9" target="mtZSVbBIH9wtx_KuYUVb-10">
          <mxGeometry relative="1" as="geometry" />
        </mxCell>
        <mxCell id="mtZSVbBIH9wtx_KuYUVb-14" value="STOP" style="ellipse;whiteSpace=wrap;html=1;" vertex="1" parent="1">
          <mxGeometry x="400" y="730" width="120" height="80" as="geometry" />
        </mxCell>
      </root>
    </mxGraphModel>
  </diagram>
</mxfile>
